#!OML:ASF I:\Actors\actors\Patient Classification 2\Patient 1\Session 1\actor1.ASF
:FULLY-SPECIFIED
:DEGREES
435
root -0.874484 18.7721 4.40496 2.5145 -2.47657 -0.0281544
lowerback 21.2176 -0.172344 -0.342033
upperback 3.08777 -0.535425 -2.39864
thorax -8.5178 -0.285031 -2.27151
lowerneck -16.4656 -1.16941 0.645296
upperneck 20.3609 -2.37466 2.48108
head 9.14542 -0.785029 0.442751
rclavicle -1.39149e-015 7.15625e-015
rhumerus 0.955464 44.1005 -37.594
rradius 135.393
rwrist -67.1734
rhand -2.64357 -32.4508
rfingers 7.12502
rthumb 23.056 -61.0916
lclavicle -1.39149e-015 7.15625e-015
lhumerus -2.67237 -37.3222 44.4192
lradius 138.316
lwrist 72.6139
lhand -14.9645 -34.065
lfingers 7.12502
lthumb 11.199 -4.38389
rfemur 0 0 0
rtibia 0
rfoot 0 0
rtoes 0
lfemur -8.97863 -1.95873 -12.9527
ltibia 20.7315
lfoot -19.0978 15.4699
ltoes -55.148
436
root -0.870872 18.7721 4.35463 2.60958 -2.46846 -0.0158868
lowerback 21.8089 -0.183886 -0.351817
upperback 3.31517 -0.560664 -2.42833
thorax -8.58498 -0.296332 -2.29354
lowerneck -15.6849 -1.09451 0.812381
upperneck 18.9975 -2.27134 2.55097
head 8.53462 -0.743524 0.454624
rclavicle -5.1684e-015 3.97569e-015
rhumerus 1.55966 43.5837 -36.6826
rradius 136.205
rwrist -69.6658
rhand -2.10399 -33.6094
rfingers 7.12502
rthumb 23.5737 -62.1845
lclavicle -5.1684e-015 3.97569e-015
lhumerus -1.51833 -36.887 42.5772
lradius 138.726
lwrist 78.1445
lhand -16.313 -31.9267
lfingers 7.12502
lthumb 9.89821 -2.17934
rfemur 0 0 0
rtibia 0
rfoot 0 0
rtoes 0
lfemur -9.37943 -1.64664 -12.9466
ltibia 20.9198
lfoot -18.8917 15.2194
ltoes -55.1646
437
root -0.868273 18.7728 4.30429 2.7183 -2.4551 -0.066421
lowerback 22.4272 -0.188258 -0.318532
upperback 3.5033 -0.565781 -2.43671
thorax -8.70715 -0.299441 -2.32339
lowerneck -14.7967 -1.04143 0.979995
upperneck 17.711 -2.1988 2.64647
head 7.94254 -0.715531 0.47088
rclavicle -1.39149e-015 -2.78299e-014
rhumerus 2.0738 43.1479 -35.5847
rradius 136.965
rwrist -71.4912
rhand -1.2079 -34.261
rfingers 7.12502
rthumb 24.4329 -62.723
lclavicle -1.39149e-015 -2.78299e-014
lhumerus -0.142989 -36.5476 40.2988
lradius 139.017
lwrist 82.1704
lhand -17.8871 -29.7741
lfingers 7.12502
lthumb 8.3793 0.0397123
rfemur 0 0 0
rtibia 0
rfoot 0 0
rtoes 0
lfemur -9.78138 -1.36283 -12.8669
ltibia 21.1071
lfoot -18.7042 14.9757
ltoes -55.1379
438
root -0.865547 18.7741 4.25577 2.88847 -2.44675 -0.14885
lowerback 22.966 -0.17359 -0.182033
upperback 3.69705 -0.519545 -2.44822
thorax -8.77754 -0.281034 -2.43077
lowerneck -13.7876 -1.07079 1.02447
upperneck 16.3449 -2.20974 2.79231
head 7.31564 -0.734961 0.514856
rclavicle 1.59028e-015 -1.35174e-014
rhumerus 2.52742 42.6125 -34.3276
rradius 137.616
rwrist -72.7221
rhand 0.0413739 -34.8991
rfingers 7.12502
rthumb 25.63 -63.1942
lclavicle 1.59028e-015 -1.35174e-014
lhumerus 1.5001 -36.2964 37.7361
lradius 139.141
lwrist 84.7521
lhand -19.5833 -27.5237
lfingers 7.12502
lthumb 6.74206 2.34896
rfemur 0 0 0
rtibia 0
rfoot 0 0
rtoes 0
lfemur -10.2475 -1.13791 -12.7651
ltibia 21.2745
lfoot -18.4379 14.8898
ltoes -55.2498
439
root -0.859355 18.7759 4.21381 3.09553 -2.487 -0.115914
lowerback 23.3678 -0.103039 0.00967762
upperback 3.96033 -0.387306 -2.50821
thorax -8.69325 -0.222589 -2.64801
lowerneck -12.9826 -1.20618 0.740225
upperneck 15.0968 -2.33646 3.13607
head 6.77926 -0.809984 0.664262
rclavicle -8.74653e-015 -3.57812e-014
rhumerus 2.77023 41.8689 -32.9932
rradius 138.171
rwrist -73.8073
rhand 1.23705 -35.9039
rfingers 7.12502
rthumb 26.7747 -64.029
lclavicle -8.74653e-015 -3.57812e-014
lhumerus 3.28501 -35.8797 35.1444
lradius 139.171
lwrist 87.3652
lhand -20.7606 -25.3997
lfingers 7.12502
lthumb 5.60554 4.50611
rfemur 0 0 0
rtibia 0
rfoot 0 0
rtoes 0
lfemur -10.7107 -1.0076 -12.8195
ltibia 21.427
lfoot -18.2761 14.9149
ltoes -55.3086
440
root -0.851986 18.7768 4.17527 3.27817 -2.53032 0.0113037
lowerback 23.718 -0.120048 -0.0803795
upperback 4.12382 -0.442285 -2.59862
thorax -8.69828 -0.246364 -2.68128
lowerneck -11.6584 -1.12328 0.924954
upperneck 13.7427 -2.17689 3.09075
head 6.11396 -0.762512 0.64102
rclavicle -8.74653e-015 -4.77083e-015
rhumerus 3.2061 41.5263 -31.6985
rradius 138.705
rwrist -75.2006
rhand 2.28392 -37.1635
rfingers 7.12502
rthumb 27.7761 -65.1312
lclavicle -8.74653e-015 -4.77083e-015
lhumerus 4.1776 -35.2569 32.7267
lradius 139.291
lwrist 90.4386
lhand -21.3083 -23.7398
lfingers 7.12502
lthumb 5.07669 6.17939
rfemur 0 0 0
rtibia 0
rfoot 0 0
rtoes 0
lfemur -11.1136 -0.869322 -12.9837
ltibia 21.5601
lfoot -18.1837 14.8732
ltoes -55.2638
441
root -0.847593 18.7768 4.13428 3.44319 -2.49432 0.108765
lowerback 24.1873 -0.122275 -0.207277
upperback 4.28675 -0.478422 -2.57724
thorax -8.76294 -0.258879 -2.57654
lowerneck -10.3272 -1.04395 1.0364
upperneck 12.2402 -1.97761 2.8783
head 5.40864 -0.713299 0.579747
rclavicle -5.56597e-015 1.90833e-014
rhumerus 3.77933 41.0513 -30.035
rradius 139.289
rwrist -77.0431
rhand 2.82416 -38.5189
rfingers 7.12502
rthumb 28.2925 -66.4021
lclavicle -5.56597e-015 1.90833e-014
lhumerus 4.96215 -34.6132 30.5069
lradius 139.317
lwrist 93.1532
lhand -21.7344 -22.7303
lfingers 7.12502
lthumb 4.66524 7.19834
rfemur 0 0 0
rtibia 0
rfoot 0 0
rtoes 0
lfemur -11.5228 -0.74321 -13.0964
ltibia 21.6796
lfoot -18.0285 14.7719
ltoes -55.2539
442
root -0.84445 18.7779 4.09204 3.57417 -2.40887 0.157998
lowerback 24.7734 -0.107856 -0.298533
upperback 4.4443 -0.478298 -2.47243
thorax -8.89049 -0.25439 -2.41204
lowerneck -8.992 -0.992389 0.844584
upperneck 10.7034 -1.79672 2.82387
head 4.70587 -0.672249 0.614923
rclavicle -5.1684e-015 -1.66979e-014
rhumerus 4.36037 40.1126 -28.2435
rradius 139.479
rwrist -77.2473
rhand 6.95617 -40.3545
rfingers 7.12502
rthumb 32.234 -67.5132
lclavicle -5.1684e-015 -1.66979e-014
lhumerus 5.70195 -34.0704 28.4699
lradius 139.3
lwrist 95.1615
lhand -21.9099 -21.911
lfingers 7.12502
lthumb 4.49572 8.02127
rfemur 0 0 0
rtibia 0
rfoot 0 0
rtoes 0
lfemur -11.9269 -0.637227 -13.1496
ltibia 21.8234
lfoot -17.8457 14.6573
ltoes -55.3112
443
root -0.849555 18.7788 4.04757 3.72746 -2.23436 0.0279921
lowerback 25.3507 -0.104118 -0.234387
upperback 4.63059 -0.444019 -2.30375
thorax -8.9784 -0.236809 -2.2762
lowerneck -7.6821 -0.959129 0.632472
upperneck 8.79609 -1.63008 2.64186
head 4.29923 -0.649634 0.676299
rclavicle 1.51076e-014 3.10104e-014
rhumerus 4.58693 39.8876 -26.4968
rradius 140.385
rwrist -79.8279
rhand 4.27634 -41.0233
rfingers 7.12502
rthumb 29.6795 -68.6681
lclavicle 1.51076e-014 3.10104e-014
lhumerus 6.45301 -33.4412 26.5095
lradius 139.342
lwrist 96.9649
lhand -21.397 -20.6071
lfingers 7.12502
lthumb 4.99107 9.31415
rfemur 0 0 0
rtibia 0
rfoot 0 0
rtoes 0
lfemur -12.4096 -0.373608 -12.9666
ltibia 22.0231
lfoot -17.548 14.3567
ltoes -55.4305
